<svg width="600" height="400" viewBox="0 0 600 400" xmlns="http://www.w3.org/2000/svg">
  <!-- Background Elements -->
  <circle cx="500" cy="100" r="80" fill="#3b82f6" opacity="0.1"/>
  <circle cx="100" cy="300" r="60" fill="#6366f1" opacity="0.1"/>
  <circle cx="450" cy="350" r="40" fill="#10b981" opacity="0.1"/>
  
  <!-- Team Members Silhouettes -->
  <g transform="translate(150, 200)">
    <!-- Person 1 -->
    <circle cx="0" cy="-80" r="30" fill="#ffffff"/>
    <path d="M -15,-80 L 15,-80 L 15,-40 L -15,-40 Z" fill="#ffffff"/>
    <path d="M -40,-40 L 40,-40 L 30,20 L -30,20 Z" fill="#ffffff"/>
    
    <!-- Person 2 -->
    <circle cx="80" cy="-70" r="25" fill="#ffffff"/>
    <path d="M 65,-70 L 95,-70 L 95,-35 L 65,-35 Z" fill="#ffffff"/>
    <path d="M 40,-35 L 120,-35 L 110,20 L 50,20 Z" fill="#ffffff"/>
    
    <!-- Person 3 -->
    <circle cx="-80" cy="-60" r="28" fill="#ffffff"/>
    <path d="M -95,-60 L -65,-60 L -65,-30 L -95,-30 Z" fill="#ffffff"/>
    <path d="M -120,-30 L -40,-30 L -50,20 L -110,20 Z" fill="#ffffff"/>
  </g>
  
  <!-- Connection Lines -->
  <path d="M 150,120 L 230,130" stroke="#ffffff" stroke-width="2" opacity="0.5"/>
  <path d="M 150,120 L 70,140" stroke="#ffffff" stroke-width="2" opacity="0.5"/>
  <path d="M 230,130 L 70,140" stroke="#ffffff" stroke-width="2" opacity="0.5"/>
  
  <!-- Decorative Elements -->
  <circle cx="300" cy="50" r="5" fill="#ffffff"/>
  <circle cx="320" cy="60" r="3" fill="#ffffff"/>
  <circle cx="280" cy="70" r="4" fill="#ffffff"/>
  <circle cx="350" cy="80" r="6" fill="#ffffff"/>
  <circle cx="250" cy="90" r="3" fill="#ffffff"/>
</svg> 